<svg width="1920" height="878" viewBox="0 0 1920 878" fill="none" xmlns="http://www.w3.org/2000/svg">
<g clip-path="url(#clip0_63_11)">
<rect width="1920" height="4824" transform="translate(0 -2045)" fill="#161617"/>
<path d="M-343.886 704.269C90.915 994.032 469.462 425.715 783.557 405.026C1236.22 375.224 1356.62 910.647 1577.63 670.14C1798.63 429.634 2006.6 219.805 2219.21 602.824C2431.82 985.843 2618.53 781.898 2618.53 781.898" stroke="white" stroke-opacity="0.1" stroke-width="0.6482" stroke-miterlimit="10"/>
<path d="M2618.11 772.072C2614.28 770.572 2420.83 981.621 2207.95 607.092C1995.06 232.564 1793.1 422.051 1571.47 658.111C1349.21 894.266 1228.43 388.301 772.643 416.943C457.086 436.877 84.1127 973.861 -342.862 687.085" stroke="white" stroke-opacity="0.1" stroke-width="0.6553" stroke-miterlimit="10"/>
<path d="M2617.65 762.295C2609.99 759.294 2409.77 977.439 2196.63 611.409C1983.5 245.38 1787.55 414.525 1565.26 646.131C1341.75 877.933 1220.62 401.407 761.683 428.907C444.701 448.068 77.2906 953.652 -341.81 669.909" stroke="white" stroke-opacity="0.1" stroke-width="0.6623" stroke-miterlimit="10"/>
<path d="M2617.23 752.498C2605.73 747.997 2398.77 973.245 2185.36 615.706C1971.94 258.167 1782.01 406.97 1559.05 634.15C1334.26 861.592 1212.82 414.541 750.723 440.872C432.325 459.231 70.4882 933.481 -340.777 652.696" stroke="white" stroke-opacity="0.1" stroke-width="0.6694" stroke-miterlimit="10"/>
<path d="M2616.78 742.692C2601.48 736.699 2387.72 969.035 2174.06 619.995C1960.39 270.955 1776.97 399.941 1552.85 622.141C1327.31 845.728 1205.05 427.627 739.763 452.837C419.941 470.422 63.6574 913.302 -339.725 635.521" stroke="white" stroke-opacity="0.1" stroke-width="0.6764" stroke-miterlimit="10"/>
<path d="M2616.32 732.915C2597.19 725.393 2376.69 964.861 2162.74 624.312C1948.84 283.743 1771.52 392.507 1546.64 610.161C1319.97 829.525 1197.24 440.761 728.811 464.773C407.565 481.584 56.8638 893.102 -338.672 618.345" stroke="white" stroke-opacity="0.1" stroke-width="0.6835" stroke-miterlimit="10"/>
<path d="M2615.9 723.118C2592.94 714.095 2365.66 960.659 2151.47 628.609C1937.29 296.53 1766.09 385.081 1540.44 598.151C1312.61 813.284 1189.45 453.838 717.859 476.71C395.181 492.775 50.0329 872.922 -337.64 601.132" stroke="white" stroke-opacity="0.1" stroke-width="0.6905" stroke-miterlimit="10"/>
<path d="M2615.44 713.312C2588.65 702.789 2354.64 956.457 2140.18 632.869C1925.72 309.281 1760.64 377.648 1534.25 586.142C1305.25 797.044 1181.65 466.944 706.908 488.646C382.796 503.966 43.2395 852.723 -336.588 583.957" stroke="white" stroke-opacity="0.1" stroke-width="0.6976" stroke-miterlimit="10"/>
<path d="M2614.99 703.506C2584.37 691.482 2343.58 952.246 2128.87 637.157C1914.15 322.097 1755.16 370.205 1528.04 574.162C1297.88 780.832 1173.85 480.05 695.948 500.611C370.391 515.12 36.4085 832.543 -335.564 566.772" stroke="white" stroke-opacity="0.1" stroke-width="0.7046" stroke-miterlimit="10"/>
<path d="M2614.56 693.737C2580.1 680.213 2332.58 948.081 2117.59 641.483C1902.6 334.885 1749.7 362.799 1521.84 562.153C1290.51 764.592 1166.06 493.127 684.996 512.547C358.007 526.311 29.6148 812.343 -334.503 549.568" stroke="white" stroke-opacity="0.1" stroke-width="0.7117" stroke-miterlimit="10"/>
<path d="M2614.11 683.931C2575.82 668.907 2321.52 943.87 2106.29 645.771C1891.05 347.672 1744.22 355.357 1515.64 550.143C1283.12 748.342 1158.25 506.232 674.065 524.521C345.66 537.482 22.8126 792.172 -333.45 532.392" stroke="white" stroke-opacity="0.1" stroke-width="0.7187" stroke-miterlimit="10"/>
<path d="M2613.66 674.126C2571.56 657.609 2310.5 939.668 2094.98 650.06C1879.5 360.46 1738.74 347.914 1509.43 538.163C1275.73 732.093 1150.48 519.347 663.113 536.457C333.247 548.664 15.9818 771.992 -332.426 515.208" stroke="white" stroke-opacity="0.1" stroke-width="0.7257" stroke-miterlimit="10"/>
<path d="M2613.24 664.328C2567.31 646.312 2299.47 935.466 2083.71 654.357C1867.94 373.247 1733.23 340.462 1503.23 526.154C1268.31 715.835 1142.65 532.444 652.133 548.384C320.871 559.826 9.18823 751.793 -331.365 498.004" stroke="white" stroke-opacity="0.1" stroke-width="0.7328" stroke-miterlimit="10"/>
<path d="M2612.78 654.551C2563.03 635.005 2288.44 931.292 2072.4 658.674C1856.35 386.055 1727.72 333.011 1497.03 514.173C1260.91 699.615 1134.85 545.549 641.173 560.349C308.486 571.017 2.35734 731.613 -330.342 480.82" stroke="white" stroke-opacity="0.1" stroke-width="0.7398" stroke-miterlimit="10"/>
<path d="M2612.35 644.754C2558.77 623.708 2277.41 927.09 2061.12 662.971C1844.81 398.814 1722.21 325.56 1490.86 502.173C1253.53 683.337 1127.11 558.672 630.25 572.294C296.11 582.18 -4.43626 711.414 -329.289 463.644" stroke="white" stroke-opacity="0.1" stroke-width="0.7469" stroke-miterlimit="10"/>
<path d="M2611.9 634.948C2554.49 612.402 2266.38 922.917 2049.82 667.259C1833.26 411.602 1716.71 318.08 1484.66 490.164C1246.08 667.071 1119.28 571.769 619.29 584.259C283.726 593.371 -11.2671 691.234 -328.228 446.44" stroke="white" stroke-opacity="0.1" stroke-width="0.7539" stroke-miterlimit="10"/>
<path d="M2611.44 625.171C2550.19 601.124 2255.32 918.734 2038.52 671.548C1821.71 424.361 1711.17 310.62 1478.45 478.183C1238.66 650.813 1111.51 584.884 608.367 596.204C271.35 604.533 -18.032 671.043 -327.175 429.264" stroke="white" stroke-opacity="0.1" stroke-width="0.761" stroke-miterlimit="10"/>
<path d="M2611.02 615.374C2545.94 589.826 2244.29 914.532 2027.24 675.845C1810.15 437.177 1705.67 303.14 1472.25 466.174C1231.21 634.546 1103.71 597.961 597.415 608.14C258.937 615.715 -24.8916 650.854 -326.152 412.08" stroke="white" stroke-opacity="0.1" stroke-width="0.768" stroke-miterlimit="10"/>
<path d="M2610.57 605.568C2541.65 578.52 2233.27 910.33 2015.94 680.133C1798.6 449.965 1700.1 295.671 1466.05 454.165C1223.77 618.251 1095.91 611.066 586.464 620.076C246.589 626.886 -31.6851 630.655 -325.091 394.876" stroke="white" stroke-opacity="0.1" stroke-width="0.7751" stroke-miterlimit="10"/>
<path d="M2610.12 595.762C2537.4 567.222 2222.21 906.119 2004.63 684.421C1787.03 462.715 1694.54 288.174 1459.85 442.156C1216.31 601.947 1088.12 624.144 575.512 632.013C234.185 638.04 -38.4788 610.455 -324.058 377.663" stroke="white" stroke-opacity="0.1" stroke-width="0.7821" stroke-miterlimit="10"/>
<path d="M2609.68 585.993C2533.13 555.953 2211.21 901.954 1993.35 688.747C1775.47 475.531 1688.99 280.676 1453.64 430.175C1208.83 585.672 1080.31 637.278 564.544 644.006C221.792 649.259 -45.3183 590.304 -323.014 360.516" stroke="white" stroke-opacity="0.1" stroke-width="0.7892" stroke-miterlimit="10"/>
<path d="M2609.23 576.187C2528.86 544.618 2200.15 897.743 1982.05 693.035C1763.91 488.319 1683.43 273.179 1447.44 418.195C1201.36 569.368 1072.51 650.384 553.592 655.942C209.416 660.422 -52.1406 570.096 -321.991 343.331" stroke="white" stroke-opacity="0.1" stroke-width="0.7962" stroke-miterlimit="10"/>
<path d="M2608.78 566.382C2524.6 533.349 2189.13 893.541 1970.74 697.324C1752.36 501.106 1677.87 265.682 1441.24 406.185C1193.89 553.065 1064.72 663.461 542.64 667.879C197.04 671.584 -58.9428 549.925 -320.929 326.127" stroke="white" stroke-opacity="0.1" stroke-width="0.8033" stroke-miterlimit="10"/>
<path d="M2608.35 556.613C2520.31 522.043 2178.09 889.368 1959.43 701.641C1740.78 513.886 1672.29 258.147 1435.04 394.176C1186.4 536.724 1056.92 676.566 531.689 679.815C184.636 682.738 -65.7649 529.717 -319.897 308.914" stroke="white" stroke-opacity="0.1" stroke-width="0.8103" stroke-miterlimit="10"/>
<path d="M2607.9 546.807C2516.03 510.737 2167.07 885.166 1948.13 705.929C1729.23 526.673 1666.7 250.641 1428.83 382.196C1178.91 520.411 1049.14 689.681 520.729 691.78C172.242 693.957 -72.5673 509.546 -318.845 291.739" stroke="white" stroke-opacity="0.1" stroke-width="0.8173" stroke-miterlimit="10"/>
<path d="M2607.48 537.01C2511.77 499.439 2156.04 880.963 1936.86 710.198C1717.68 539.461 1661.13 243.106 1422.63 370.187C1171.42 504.07 1041.34 702.786 509.777 703.716C159.866 705.12 -79.3694 489.375 -317.792 274.563" stroke="white" stroke-opacity="0.1" stroke-width="0.8244" stroke-miterlimit="10"/>
<path d="M2607.03 527.204C2507.49 488.133 2145.02 876.761 1925.55 714.515C1706.12 552.248 1655.53 235.534 1416.42 358.206C1163.92 487.757 1033.54 715.892 498.817 715.681C147.482 716.311 -86.2003 469.195 -316.768 257.379" stroke="white" stroke-opacity="0.1" stroke-width="0.8314" stroke-miterlimit="10"/>
<path d="M2606.57 517.427C2503.22 476.864 2133.96 872.579 1914.25 718.803C1694.57 565.036 1649.92 227.991 1410.23 346.197C1156.41 471.379 1025.74 728.998 487.866 727.617C135.077 727.464 -93.0226 448.986 -315.736 240.166" stroke="white" stroke-opacity="0.1" stroke-width="0.8385" stroke-miterlimit="10"/>
<path d="M2606.14 507.63C2498.98 465.538 2122.93 868.377 1902.97 723.1C1683.02 577.824 1644.32 220.419 1404.05 334.197C1148.93 455.009 1017.98 742.083 476.943 739.562C122.722 738.664 -99.8247 428.815 -314.655 222.999" stroke="white" stroke-opacity="0.1" stroke-width="0.8455" stroke-miterlimit="10"/>
<path d="M2605.69 497.824C2494.68 454.26 2111.9 864.174 1891.67 727.389C1671.44 590.603 1638.73 212.847 1397.85 322.216C1141.42 438.631 1010.17 755.218 465.983 751.527C110.346 749.826 -106.618 408.616 -313.631 205.815" stroke="white" stroke-opacity="0.1" stroke-width="0.8526" stroke-miterlimit="10"/>
<path d="M2605.24 488.018C2490.41 442.925 2100.88 859.972 1880.37 731.677C1659.89 603.39 1633.11 205.238 1391.62 310.198C1133.86 422.235 1002.35 768.286 455.002 763.454C97.961 761.017 -113.449 388.436 -312.578 188.639" stroke="white" stroke-opacity="0.1" stroke-width="0.8596" stroke-miterlimit="10"/>
<path d="M2604.81 478.25C2486.15 431.656 2089.85 855.799 1869.09 735.974C1648.33 616.178 1627.52 197.637 1385.45 298.198C1126.36 405.828 994.574 781.401 444.071 775.428C85.5852 772.18 -120.243 368.236 -311.546 171.426" stroke="white" stroke-opacity="0.1" stroke-width="0.8667" stroke-miterlimit="10"/>
<path d="M2604.36 468.444C2481.86 420.35 2078.79 851.588 1857.78 740.291C1636.78 628.966 1621.89 190.056 1379.24 286.217C1118.83 389.412 986.773 794.506 433.119 787.364C73.172 783.362 -127.074 348.057 -310.494 154.25" stroke="white" stroke-opacity="0.1" stroke-width="0.8737" stroke-miterlimit="10"/>
<path d="M2603.91 458.638C2477.61 409.052 2067.77 847.386 1846.48 744.58C1625.23 641.753 1616.28 182.418 1373.04 274.208C1111.3 372.996 978.972 807.612 422.159 799.329C60.7875 794.553 -133.867 327.857 -309.441 137.075" stroke="white" stroke-opacity="0.1" stroke-width="0.8808" stroke-miterlimit="10"/>
<path d="M2603.47 448.869C2473.34 397.783 2056.73 843.212 1835.2 748.877C1613.65 654.532 1610.67 174.78 1366.83 262.228C1103.78 356.552 971.171 820.718 411.208 811.265C48.4115 805.715 -140.698 307.677 -308.409 119.862" stroke="white" stroke-opacity="0.1" stroke-width="0.8878" stroke-miterlimit="10"/>
<path d="M2603.02 439.063C2469.06 386.477 2045.71 839.01 1823.9 753.165C1602.09 667.32 1605.03 167.134 1360.64 250.218C1096.24 340.07 963.407 833.803 400.285 823.21C36.0269 816.906 -147.5 287.506 -307.356 102.686" stroke="white" stroke-opacity="0.1" stroke-width="0.8949" stroke-miterlimit="10"/>
<path d="M2602.57 429.257C2464.77 375.17 2034.65 834.799 1812.6 757.453C1590.54 680.107 1599.42 159.496 1354.44 238.209C1088.73 323.597 955.606 846.909 389.333 835.147C23.6512 828.069 -154.323 267.298 -306.332 85.5019" stroke="white" stroke-opacity="0.1" stroke-width="0.9019" stroke-miterlimit="10"/>
<path d="M2602.15 419.46C2460.52 363.873 2023.66 830.606 1801.32 761.75C1578.99 692.895 1593.8 151.791 1348.24 226.2C1081.19 307.115 947.814 859.986 378.382 847.083C11.2666 839.259 -161.125 247.127 -305.271 68.2976" stroke="white" stroke-opacity="0.1" stroke-width="0.9089" stroke-miterlimit="10"/>
<path d="M2601.69 409.683C2456.23 352.566 2012.59 826.423 1790.01 766.067C1567.43 705.711 1588.19 144.154 1342.03 214.22C1073.65 290.633 940.004 873.12 367.422 859.048C-1.10916 850.422 -167.918 226.927 -304.219 51.122" stroke="white" stroke-opacity="0.1" stroke-width="0.916" stroke-miterlimit="10"/>
<path d="M2601.27 399.886C2451.98 341.269 2001.57 822.221 1778.71 770.356C1555.85 718.49 1582.57 136.449 1335.82 202.239C1066.11 274.151 932.203 886.226 356.461 871.013C-13.4938 861.613 -174.749 206.748 -303.195 33.9378" stroke="white" stroke-opacity="0.1" stroke-width="0.923" stroke-miterlimit="10"/>
<path d="M2600.82 390.08C2447.72 329.971 1990.54 818.019 1767.43 774.653C1544.32 731.287 1576.98 128.754 1329.65 190.238C1058.62 257.621 924.431 899.34 345.539 882.957C-25.8983 872.766 -181.551 186.577 -302.134 16.7335" stroke="white" stroke-opacity="0.1" stroke-width="0.9301" stroke-miterlimit="10"/>
<path d="M2600.36 380.274C2443.44 318.665 1979.52 813.817 1756.13 778.941C1532.74 744.066 1571.37 121.021 1323.42 178.221C1051.08 241.044 916.61 912.409 334.558 894.885C-38.2828 883.957 -188.374 166.368 -301.11 -0.450846" stroke="white" stroke-opacity="0.1" stroke-width="0.9371" stroke-miterlimit="10"/>
<path d="M2599.93 370.505C2439.18 307.396 1968.49 809.643 1744.85 783.267C1521.19 756.853 1565.76 113.289 1317.22 166.24C1043.55 224.534 908.809 925.514 323.598 906.85C-50.6588 895.12 -195.176 146.197 -300.058 -17.6264" stroke="white" stroke-opacity="0.1" stroke-width="0.9442" stroke-miterlimit="10"/>
<path d="M2599.48 360.7C2434.89 296.089 1957.46 805.441 1733.55 787.527C1509.64 769.641 1560.14 105.556 1311.05 154.24C1036.06 207.975 901.037 938.629 312.675 918.795C-63.0432 906.311 -201.998 125.989 -298.997 -34.8308" stroke="white" stroke-opacity="0.1" stroke-width="0.9512" stroke-miterlimit="10"/>
<path d="M2599.03 350.894C2430.64 284.792 1946.43 801.239 1722.24 791.844C1498.09 782.428 1554.47 97.3983 1304.84 142.259C1028.47 190.945 893.236 951.734 301.715 930.76C-75.4278 917.502 -208.8 105.818 -297.973 -52.015" stroke="white" stroke-opacity="0.1" stroke-width="0.9583" stroke-miterlimit="10"/>
<path d="M2598.6 341.125C2426.35 273.486 1935.4 797.065 1710.97 796.141C1486.53 795.216 1548.93 89.8437 1298.64 130.25C1021.02 174.555 885.463 964.849 290.764 942.696C-87.8036 928.664 -215.631 85.6383 -296.92 -69.1906" stroke="white" stroke-opacity="0.1" stroke-width="0.9653" stroke-miterlimit="10"/>
<path d="M2598.15 331.319C2422.07 262.179 1924.35 792.854 1699.66 800.429C1474.98 808.004 1543.39 82.289 1292.44 118.241C1013.57 158.194 877.671 977.926 279.812 954.632C-100.188 939.855 -222.425 65.4386 -295.888 -86.4036" stroke="white" stroke-opacity="0.1" stroke-width="0.9724" stroke-miterlimit="10"/>
<path d="M3139.93 -285.751C2614.18 108.283 2099.61 -578.789 1703.89 -582.864C1133.62 -588.736 1019.58 91.8351 725.477 -194.732C431.401 -481.27 155.771 -730.177 -84.5507 -234.549C-324.873 261.079 -573.37 18.0737 -573.37 18.0737" stroke="white" stroke-opacity="0.1" stroke-width="0.6687" stroke-miterlimit="10"/>
<path d="M-573.46 9.3552C-570.136 7.82724 -315.29 256.855 -74.3088 -231.284C166.672 -719.392 435.952 -488.25 730.418 -205.698C1025.42 76.915 1141.23 -577.501 1714.23 -572.798C2111.17 -569.472 2619.27 90.0375 3138.16 -300.97" stroke="white" stroke-opacity="0.1" stroke-width="0.6738" stroke-miterlimit="10"/>
<path d="M-573.55 0.636899C-566.902 -2.41902 -305.707 252.571 -64.067 -228.018C177.573 -708.606 440.504 -495.231 735.329 -216.663C1031.23 61.9949 1148.77 -566.236 1724.53 -562.731C2122.7 -560.154 2624.3 71.7619 3136.39 -316.22" stroke="white" stroke-opacity="0.1" stroke-width="0.679" stroke-miterlimit="10"/>
<path d="M-573.64 -8.08137C-563.667 -12.6653 -296.094 248.316 -53.8253 -224.752C188.443 -697.82 445.056 -502.212 740.24 -227.628C1037.04 47.1049 1156.35 -554.971 1734.86 -552.664C2134.26 -550.867 2629.4 53.4565 3134.63 -331.44" stroke="white" stroke-opacity="0.1" stroke-width="0.6841" stroke-miterlimit="10"/>
<path d="M-573.729 -16.8297C-560.433 -22.9116 -286.511 244.002 -43.5835 -221.516C199.344 -687.035 449.608 -509.222 745.152 -238.594C1042.88 32.2148 1163.9 -543.736 1745.16 -542.568C2145.82 -541.519 2634.43 35.2108 3132.83 -346.629" stroke="white" stroke-opacity="0.1" stroke-width="0.6893" stroke-miterlimit="10"/>
<path d="M-573.819 -25.5482C-557.199 -33.158 -276.928 239.748 -33.3418 -218.251C210.244 -676.249 453.621 -515.574 750.063 -249.559C1048.12 17.9239 1171.44 -532.471 1755.46 -532.501C2157.35 -532.202 2639.49 16.9352 3131.06 -361.849" stroke="white" stroke-opacity="0.1" stroke-width="0.6944" stroke-miterlimit="10"/>
<path d="M-573.909 -34.2665C-553.935 -43.4043 -267.345 235.493 -23.1 -214.985C221.145 -665.464 458.083 -522.435 755.004 -260.524C1053.87 3.12361 1179.05 -521.206 1765.79 -522.435C2168.91 -522.884 2644.55 -1.34046 3129.3 -377.099" stroke="white" stroke-opacity="0.1" stroke-width="0.6996" stroke-miterlimit="10"/>
<path d="M-573.999 -42.9847C-550.7 -53.6505 -257.732 231.209 -12.8583 -211.72C232.016 -654.648 462.545 -529.296 759.915 -271.49C1059.59 -11.6466 1186.6 -509.971 1776.1 -512.368C2180.44 -513.596 2649.61 -19.616 3127.53 -392.318" stroke="white" stroke-opacity="0.1" stroke-width="0.7047" stroke-miterlimit="10"/>
<path d="M-574.089 -51.7032C-547.466 -63.8969 -248.149 226.955 -2.61647 -208.454C242.916 -643.863 467.037 -536.156 764.827 -282.455C1065.34 -26.4169 1194.17 -498.706 1786.43 -502.272C2192.03 -504.249 2654.7 -37.8617 3125.76 -407.508" stroke="white" stroke-opacity="0.1" stroke-width="0.7099" stroke-miterlimit="10"/>
<path d="M-574.149 -60.4216C-544.202 -74.1432 -238.536 222.7 7.65514 -205.188C253.847 -633.077 471.529 -543.017 769.768 -293.391C1071.09 -41.1872 1201.75 -487.411 1796.73 -492.175C2203.55 -494.901 2659.73 -56.1074 3123.99 -422.728" stroke="white" stroke-opacity="0.1" stroke-width="0.715" stroke-miterlimit="10"/>
<path d="M-574.239 -69.17C-540.968 -84.4196 -228.924 218.386 17.8969 -201.953C264.747 -622.291 476.021 -549.908 774.679 -304.386C1076.84 -55.9875 1209.33 -476.206 1807.06 -482.139C2215.11 -485.614 2664.82 -74.4129 3122.23 -437.978" stroke="white" stroke-opacity="0.1" stroke-width="0.7201" stroke-miterlimit="10"/>
<path d="M-574.328 -77.8883C-537.734 -94.6659 -219.341 214.132 28.1386 -198.687C275.618 -611.506 480.513 -556.769 779.59 -315.351C1082.56 -70.7878 1216.87 -464.941 1817.36 -472.042C2226.64 -476.266 2669.85 -92.6586 3120.46 -453.167" stroke="white" stroke-opacity="0.1" stroke-width="0.7253" stroke-miterlimit="10"/>
<path d="M-574.418 -86.6065C-534.499 -104.882 -209.758 209.848 38.3805 -195.421C286.519 -600.72 484.975 -563.66 784.532 -326.317C1088.34 -85.588 1224.45 -453.677 1827.69 -461.975C2238.2 -466.979 2674.94 -110.964 3118.69 -468.387" stroke="white" stroke-opacity="0.1" stroke-width="0.7304" stroke-miterlimit="10"/>
<path d="M-574.508 -95.325C-531.265 -115.129 -200.145 205.593 48.6222 -192.156C297.389 -589.905 489.497 -570.521 789.443 -337.252C1094.09 -100.328 1232.02 -442.412 1838 -451.879C2249.76 -457.631 2679.98 -129.21 3116.9 -483.607" stroke="white" stroke-opacity="0.1" stroke-width="0.7356" stroke-miterlimit="10"/>
<path d="M-574.598 -104.043C-528.031 -125.375 -190.562 201.339 58.864 -188.89C308.29 -579.119 493.989 -577.381 794.354 -348.217C1099.87 -115.129 1239.57 -431.147 1848.3 -441.812C2261.29 -448.314 2685.04 -147.485 3115.13 -498.826" stroke="white" stroke-opacity="0.1" stroke-width="0.7407" stroke-miterlimit="10"/>
<path d="M-574.688 -112.792C-524.796 -135.651 -180.979 197.025 69.1058 -185.654C319.19 -568.333 498.481 -584.302 799.265 -359.213C1105.62 -129.959 1247.15 -419.912 1858.6 -431.746C2272.82 -438.996 2690.1 -165.761 3113.33 -514.046" stroke="white" stroke-opacity="0.1" stroke-width="0.7459" stroke-miterlimit="10"/>
<path d="M-574.777 -121.51C-521.562 -145.897 -171.396 192.77 79.3476 -182.389C330.091 -557.548 503.003 -591.193 804.177 -370.178C1111.37 -144.759 1254.69 -408.677 1868.93 -421.679C2284.38 -429.709 2695.16 -184.037 3111.6 -529.266" stroke="white" stroke-opacity="0.1" stroke-width="0.751" stroke-miterlimit="10"/>
<path d="M-574.867 -130.228C-518.328 -156.144 -161.783 188.516 89.5892 -179.123C340.962 -546.762 507.495 -598.054 809.088 -381.143C1117.15 -159.559 1262.24 -397.412 1879.23 -411.613C2295.94 -420.391 2700.22 -202.312 3109.8 -544.515" stroke="white" stroke-opacity="0.1" stroke-width="0.7562" stroke-miterlimit="10"/>
<path d="M-578.161 -461.736C-395.217 -545.534 202.818 26.1928 478.896 -55.2685C754.974 -136.73 681.785 -863.619 996.045 -797.797C1339.47 -725.893 1549.82 30.3274 2271.2 -28.7538C2734.84 -66.2637 2892.54 -896.575 3042.54 -1122.83" stroke="white" stroke-opacity="0.1" stroke-width="0.9516" stroke-miterlimit="10"/>
<path d="M-578.221 -470.454C-391.923 -555.78 212.43 21.9384 489.168 -52.0029C765.875 -125.944 686.426 -870.72 1000.99 -808.763C1345.37 -740.933 1557.43 41.5921 2281.54 -18.6874C2746.4 -56.9463 2897.63 -914.881 3040.77 -1138.05" stroke="white" stroke-opacity="0.1" stroke-width="0.9568" stroke-miterlimit="10"/>
<path d="M-578.311 -479.172C-388.689 -566.027 222.043 17.6841 499.409 -48.7372C776.775 -115.129 691.038 -877.85 1005.9 -819.728C1351.21 -755.973 1564.97 52.8572 2291.84 -8.59072C2757.93 -47.5986 2902.69 -933.126 3039.01 -1153.24" stroke="white" stroke-opacity="0.1" stroke-width="0.9619" stroke-miterlimit="10"/>
<path d="M-578.401 -487.921C-385.455 -576.303 231.626 13.3699 509.651 -45.5015C787.676 -104.373 695.62 -885.011 1010.81 -830.723C1357.08 -771.073 1572.52 64.0622 2302.14 1.44576C2769.49 -38.3112 2907.72 -951.432 3037.21 -1168.52" stroke="white" stroke-opacity="0.1" stroke-width="0.967" stroke-miterlimit="10"/>
<path d="M-578.491 -496.639C-382.221 -586.549 241.209 9.1156 519.893 -42.2358C798.577 -93.5873 700.232 -892.141 1015.75 -841.659C1362.95 -786.113 1580.09 75.357 2312.47 11.5422C2781.05 -28.9937 2912.81 -969.678 3035.47 -1183.71" stroke="white" stroke-opacity="0.1" stroke-width="0.9722" stroke-miterlimit="10"/>
<path d="M-578.581 -505.358C-378.986 -596.795 250.822 4.83119 530.135 -38.9703C809.477 -82.7718 704.813 -899.272 1020.66 -852.624C1368.82 -801.213 1587.67 86.6221 2322.8 21.6089C2792.61 -19.676 2917.87 -987.953 3033.71 -1198.93" stroke="white" stroke-opacity="0.1" stroke-width="0.9773" stroke-miterlimit="10"/>
<path d="M-578.671 -514.076C-375.752 -607.042 260.405 0.577116 540.377 -35.7044C820.348 -71.986 709.426 -906.432 1025.57 -863.589C1374.69 -816.282 1595.25 97.8572 2333.1 31.7056C2804.14 -10.3283 2922.93 -1006.2 3031.94 -1214.15" stroke="white" stroke-opacity="0.1" stroke-width="0.9825" stroke-miterlimit="10"/>
<path d="M-578.76 -522.794C-372.518 -617.288 269.988 -3.67739 550.618 -32.439C831.248 -61.2006 714.067 -914.132 1030.48 -874.555C1380.62 -832.011 1602.79 109.122 2343.41 41.772C2815.66 -1.01089 2927.96 -1024.47 3030.14 -1229.37" stroke="white" stroke-opacity="0.1" stroke-width="0.9876" stroke-miterlimit="10"/>
<path d="M-578.85 -531.513C-369.283 -627.505 279.571 -7.96172 560.86 -29.1734C842.149 -50.3851 718.619 -921.112 1035.39 -885.49C1386.46 -846.902 1610.37 120.387 2353.74 51.8384C2827.25 8.27654 2933.06 -1042.75 3028.41 -1244.59" stroke="white" stroke-opacity="0.1" stroke-width="0.9928" stroke-miterlimit="10"/>
<path d="M-578.94 -540.261C-366.049 -637.781 289.184 -12.2459 571.102 -25.9376C853.02 -39.6293 723.171 -928.123 1040.31 -896.485C1392.24 -861.822 1617.92 131.622 2364.01 61.905C2838.75 17.5941 2938.06 -1061.03 3026.58 -1259.81" stroke="white" stroke-opacity="0.1" stroke-width="0.9979" stroke-miterlimit="10"/>
<path d="M-579 -548.979C-362.785 -648.027 298.797 -16.5002 581.373 -22.672C863.95 -28.8437 727.783 -935.104 1045.28 -907.451C1398.11 -876.712 1625.52 142.887 2374.37 72.0017C2850.34 26.9419 2943.18 -1079.3 3024.84 -1275" stroke="white" stroke-opacity="0.1" stroke-width="1.0031" stroke-miterlimit="10"/>
<g filter="url(#filter0_d_63_11)">
<rect x="325" y="-469" width="400" height="400" rx="6" fill="url(#paint0_linear_63_11)"/>
<rect x="325.5" y="-468.5" width="399" height="399" rx="5.5" stroke="url(#paint1_linear_63_11)" stroke-opacity="0.2"/>
</g>
<g filter="url(#filter1_d_63_11)">
<rect x="760" y="-469" width="400" height="400" rx="6" fill="url(#paint2_linear_63_11)"/>
<rect x="760.5" y="-468.5" width="399" height="399" rx="5.5" stroke="url(#paint3_linear_63_11)" stroke-opacity="0.2"/>
</g>
<g filter="url(#filter2_d_63_11)">
<rect x="1195" y="-469" width="400" height="400" rx="6" fill="url(#paint4_linear_63_11)"/>
<rect x="1195.5" y="-468.5" width="399" height="399" rx="5.5" stroke="url(#paint5_linear_63_11)" stroke-opacity="0.2"/>
</g>
</g>
<defs>
<filter id="filter0_d_63_11" x="245" y="-549" width="560" height="560" filterUnits="userSpaceOnUse" color-interpolation-filters="sRGB">
<feFlood flood-opacity="0" result="BackgroundImageFix"/>
<feColorMatrix in="SourceAlpha" type="matrix" values="0 0 0 0 0 0 0 0 0 0 0 0 0 0 0 0 0 0 127 0" result="hardAlpha"/>
<feOffset/>
<feGaussianBlur stdDeviation="40"/>
<feComposite in2="hardAlpha" operator="out"/>
<feColorMatrix type="matrix" values="0 0 0 0 0.172549 0 0 0 0 0.172549 0 0 0 0 0.176471 0 0 0 0.35 0"/>
<feBlend mode="normal" in2="BackgroundImageFix" result="effect1_dropShadow_63_11"/>
<feBlend mode="normal" in="SourceGraphic" in2="effect1_dropShadow_63_11" result="shape"/>
</filter>
<filter id="filter1_d_63_11" x="680" y="-549" width="560" height="560" filterUnits="userSpaceOnUse" color-interpolation-filters="sRGB">
<feFlood flood-opacity="0" result="BackgroundImageFix"/>
<feColorMatrix in="SourceAlpha" type="matrix" values="0 0 0 0 0 0 0 0 0 0 0 0 0 0 0 0 0 0 127 0" result="hardAlpha"/>
<feOffset/>
<feGaussianBlur stdDeviation="40"/>
<feComposite in2="hardAlpha" operator="out"/>
<feColorMatrix type="matrix" values="0 0 0 0 0.172549 0 0 0 0 0.172549 0 0 0 0 0.176471 0 0 0 0.35 0"/>
<feBlend mode="normal" in2="BackgroundImageFix" result="effect1_dropShadow_63_11"/>
<feBlend mode="normal" in="SourceGraphic" in2="effect1_dropShadow_63_11" result="shape"/>
</filter>
<filter id="filter2_d_63_11" x="1115" y="-549" width="560" height="560" filterUnits="userSpaceOnUse" color-interpolation-filters="sRGB">
<feFlood flood-opacity="0" result="BackgroundImageFix"/>
<feColorMatrix in="SourceAlpha" type="matrix" values="0 0 0 0 0 0 0 0 0 0 0 0 0 0 0 0 0 0 127 0" result="hardAlpha"/>
<feOffset/>
<feGaussianBlur stdDeviation="40"/>
<feComposite in2="hardAlpha" operator="out"/>
<feColorMatrix type="matrix" values="0 0 0 0 0.172549 0 0 0 0 0.172549 0 0 0 0 0.176471 0 0 0 0.35 0"/>
<feBlend mode="normal" in2="BackgroundImageFix" result="effect1_dropShadow_63_11"/>
<feBlend mode="normal" in="SourceGraphic" in2="effect1_dropShadow_63_11" result="shape"/>
</filter>
<linearGradient id="paint0_linear_63_11" x1="369.364" y1="-432.303" x2="676.61" y2="-71.7663" gradientUnits="userSpaceOnUse">
<stop stop-color="#303134"/>
<stop offset="0.519792" stop-color="#282828"/>
<stop offset="0.927909" stop-color="#282828"/>
</linearGradient>
<linearGradient id="paint1_linear_63_11" x1="330" y1="-462" x2="725" y2="-69" gradientUnits="userSpaceOnUse">
<stop stop-color="white"/>
<stop offset="1" stop-color="white" stop-opacity="0"/>
</linearGradient>
<linearGradient id="paint2_linear_63_11" x1="804.364" y1="-432.303" x2="1111.61" y2="-71.7663" gradientUnits="userSpaceOnUse">
<stop stop-color="#303134"/>
<stop offset="0.519792" stop-color="#282828"/>
<stop offset="0.927909" stop-color="#282828"/>
</linearGradient>
<linearGradient id="paint3_linear_63_11" x1="760" y1="-463" x2="1160" y2="-69" gradientUnits="userSpaceOnUse">
<stop stop-color="white"/>
<stop offset="1" stop-color="white" stop-opacity="0"/>
</linearGradient>
<linearGradient id="paint4_linear_63_11" x1="1239.36" y1="-432.303" x2="1546.61" y2="-71.7663" gradientUnits="userSpaceOnUse">
<stop stop-color="#303134"/>
<stop offset="0.519792" stop-color="#282828"/>
<stop offset="0.927909" stop-color="#282828"/>
</linearGradient>
<linearGradient id="paint5_linear_63_11" x1="1203" y1="-462" x2="1577" y2="-63" gradientUnits="userSpaceOnUse">
<stop stop-color="white"/>
<stop offset="1" stop-color="white" stop-opacity="0"/>
</linearGradient>
<clipPath id="clip0_63_11">
<rect width="1920" height="4824" fill="white" transform="translate(0 -2045)"/>
</clipPath>
</defs>
</svg>
